<?xml version="1.0" encoding="UTF-8" standalone="no"?>
<!DOCTYPE svg PUBLIC "-//W3C//DTD SVG 1.1//EN"
 "http://www.w3.org/Graphics/SVG/1.1/DTD/svg11.dtd">
<!-- Generated by graphviz version 3.0.0 (0)
 -->
<!-- Title: G Pages: 1 -->
<svg width="1239pt" height="548pt"
 viewBox="0.00 0.00 1239.17 548.00" xmlns="http://www.w3.org/2000/svg" xmlns:xlink="http://www.w3.org/1999/xlink">
<g id="graph0" class="graph" transform="scale(1 1) rotate(0) translate(4 544)">
<title>G</title>
<polygon fill="white" stroke="transparent" points="-4,4 -4,-544 1235.17,-544 1235.17,4 -4,4"/>
<!-- arrow_deps -->
<g id="node1" class="node">
<title>arrow_deps</title>
<ellipse fill="none" stroke="black" cx="242.95" cy="-18" rx="51.99" ry="18"/>
<text text-anchor="middle" x="242.95" y="-14.3" font-family="Times,serif" font-size="14.00">arrow_deps</text>
</g>
<!-- analytic_engine -->
<g id="node2" class="node">
<title>analytic_engine</title>
<ellipse fill="none" stroke="black" cx="1152.95" cy="-234" rx="66.09" ry="18"/>
<text text-anchor="middle" x="1152.95" y="-230.3" font-family="Times,serif" font-size="14.00">analytic_engine</text>
</g>
<!-- analytic_engine&#45;&gt;arrow_deps -->
<g id="edge1" class="edge">
<title>analytic_engine&#45;&gt;arrow_deps</title>
<path fill="none" stroke="black" d="M1149.19,-215.96C1143.75,-195.52 1131.62,-161.78 1107.95,-144 980.67,-48.4 480.96,-25.54 304.81,-20.4"/>
<polygon fill="black" stroke="black" points="304.77,-16.9 294.68,-20.12 304.57,-23.9 304.77,-16.9"/>
</g>
<!-- proto -->
<g id="node3" class="node">
<title>proto</title>
<ellipse fill="none" stroke="black" cx="926.95" cy="-18" rx="29.5" ry="18"/>
<text text-anchor="middle" x="926.95" y="-14.3" font-family="Times,serif" font-size="14.00">proto</text>
</g>
<!-- analytic_engine&#45;&gt;proto -->
<g id="edge2" class="edge">
<title>analytic_engine&#45;&gt;proto</title>
<path fill="none" stroke="black" d="M1185.64,-218.2C1200.84,-209.44 1217.41,-196.74 1225.95,-180 1233.22,-165.75 1232.32,-158.68 1225.95,-144 1183.12,-45.32 1037.5,-24.32 966.51,-20.01"/>
<polygon fill="black" stroke="black" points="966.36,-16.49 956.19,-19.46 965.99,-23.48 966.36,-16.49"/>
</g>
<!-- table_engine -->
<g id="node4" class="node">
<title>table_engine</title>
<ellipse fill="none" stroke="black" cx="607.95" cy="-90" rx="55.79" ry="18"/>
<text text-anchor="middle" x="607.95" y="-86.3" font-family="Times,serif" font-size="14.00">table_engine</text>
</g>
<!-- analytic_engine&#45;&gt;table_engine -->
<g id="edge3" class="edge">
<title>analytic_engine&#45;&gt;table_engine</title>
<path fill="none" stroke="black" d="M1143.02,-215.83C1129.91,-194.92 1104.71,-160.38 1072.95,-144 1004.84,-108.89 784.68,-96.74 673.49,-92.78"/>
<polygon fill="black" stroke="black" points="673.52,-89.28 663.4,-92.44 673.28,-96.28 673.52,-89.28"/>
</g>
<!-- wal -->
<g id="node5" class="node">
<title>wal</title>
<ellipse fill="none" stroke="black" cx="1189.95" cy="-162" rx="27" ry="18"/>
<text text-anchor="middle" x="1189.95" y="-158.3" font-family="Times,serif" font-size="14.00">wal</text>
</g>
<!-- analytic_engine&#45;&gt;wal -->
<g id="edge4" class="edge">
<title>analytic_engine&#45;&gt;wal</title>
<path fill="none" stroke="black" d="M1161.91,-216.05C1166.29,-207.77 1171.65,-197.62 1176.51,-188.42"/>
<polygon fill="black" stroke="black" points="1179.75,-189.78 1181.33,-179.31 1173.56,-186.51 1179.75,-189.78"/>
</g>
<!-- table_engine&#45;&gt;arrow_deps -->
<g id="edge44" class="edge">
<title>table_engine&#45;&gt;arrow_deps</title>
<path fill="none" stroke="black" d="M560.98,-79.99C493.35,-67.02 368.85,-43.15 297.33,-29.43"/>
<polygon fill="black" stroke="black" points="297.65,-25.93 287.17,-27.48 296.33,-32.8 297.65,-25.93"/>
</g>
<!-- table_engine&#45;&gt;proto -->
<g id="edge45" class="edge">
<title>table_engine&#45;&gt;proto</title>
<path fill="none" stroke="black" d="M652.98,-79.12C716.49,-65.18 831.18,-40.02 889.98,-27.11"/>
<polygon fill="black" stroke="black" points="890.93,-30.49 899.95,-24.92 889.43,-23.65 890.93,-30.49"/>
</g>
<!-- catalog -->
<g id="node6" class="node">
<title>catalog</title>
<ellipse fill="none" stroke="black" cx="607.95" cy="-162" rx="36.29" ry="18"/>
<text text-anchor="middle" x="607.95" y="-158.3" font-family="Times,serif" font-size="14.00">catalog</text>
</g>
<!-- catalog&#45;&gt;table_engine -->
<g id="edge5" class="edge">
<title>catalog&#45;&gt;table_engine</title>
<path fill="none" stroke="black" d="M607.95,-143.7C607.95,-135.98 607.95,-126.71 607.95,-118.11"/>
<polygon fill="black" stroke="black" points="611.45,-118.1 607.95,-108.1 604.45,-118.1 611.45,-118.1"/>
</g>
<!-- catalog_impls -->
<g id="node7" class="node">
<title>catalog_impls</title>
<ellipse fill="none" stroke="black" cx="733.95" cy="-306" rx="59.59" ry="18"/>
<text text-anchor="middle" x="733.95" y="-302.3" font-family="Times,serif" font-size="14.00">catalog_impls</text>
</g>
<!-- catalog_impls&#45;&gt;table_engine -->
<g id="edge8" class="edge">
<title>catalog_impls&#45;&gt;table_engine</title>
<path fill="none" stroke="black" d="M778.03,-293.7C786.29,-291.71 794.87,-289.73 802.95,-288 894.93,-268.37 1057.15,-292.15 1001.95,-216 962.09,-161.02 765.84,-119.02 666.21,-100.85"/>
<polygon fill="black" stroke="black" points="666.76,-97.39 656.3,-99.06 665.52,-104.28 666.76,-97.39"/>
</g>
<!-- catalog_impls&#45;&gt;catalog -->
<g id="edge6" class="edge">
<title>catalog_impls&#45;&gt;catalog</title>
<path fill="none" stroke="black" d="M711.93,-289.15C698.95,-279.25 682.65,-265.8 669.95,-252 651.65,-232.11 634.38,-206.55 622.74,-187.93"/>
<polygon fill="black" stroke="black" points="625.72,-186.09 617.5,-179.4 619.75,-189.75 625.72,-186.09"/>
</g>
<!-- system_catalog -->
<g id="node8" class="node">
<title>system_catalog</title>
<ellipse fill="none" stroke="black" cx="926.95" cy="-234" rx="65.79" ry="18"/>
<text text-anchor="middle" x="926.95" y="-230.3" font-family="Times,serif" font-size="14.00">system_catalog</text>
</g>
<!-- catalog_impls&#45;&gt;system_catalog -->
<g id="edge7" class="edge">
<title>catalog_impls&#45;&gt;system_catalog</title>
<path fill="none" stroke="black" d="M770.71,-291.67C801.56,-280.48 845.86,-264.41 879.41,-252.24"/>
<polygon fill="black" stroke="black" points="880.8,-255.46 889.01,-248.76 878.42,-248.88 880.8,-255.46"/>
</g>
<!-- system_catalog&#45;&gt;arrow_deps -->
<g id="edge40" class="edge">
<title>system_catalog&#45;&gt;arrow_deps</title>
<path fill="none" stroke="black" d="M907.82,-216.56C867.5,-182.93 769.54,-106.58 672.95,-72 547.91,-27.23 390.79,-19.01 305.33,-18.21"/>
<polygon fill="black" stroke="black" points="305.29,-14.71 295.27,-18.15 305.25,-21.71 305.29,-14.71"/>
</g>
<!-- system_catalog&#45;&gt;proto -->
<g id="edge42" class="edge">
<title>system_catalog&#45;&gt;proto</title>
<path fill="none" stroke="black" d="M926.95,-215.85C926.95,-178.83 926.95,-91.18 926.95,-46.39"/>
<polygon fill="black" stroke="black" points="930.45,-46.23 926.95,-36.23 923.45,-46.23 930.45,-46.23"/>
</g>
<!-- system_catalog&#45;&gt;table_engine -->
<g id="edge43" class="edge">
<title>system_catalog&#45;&gt;table_engine</title>
<path fill="none" stroke="black" d="M894.01,-218.34C835.26,-192.19 712.58,-137.58 648.65,-109.12"/>
<polygon fill="black" stroke="black" points="649.85,-105.82 639.29,-104.95 647,-112.22 649.85,-105.82"/>
</g>
<!-- system_catalog&#45;&gt;catalog -->
<g id="edge41" class="edge">
<title>system_catalog&#45;&gt;catalog</title>
<path fill="none" stroke="black" d="M878.41,-221.76C869.93,-219.82 861.18,-217.84 852.95,-216 782.17,-200.21 699.72,-182.52 650.79,-172.09"/>
<polygon fill="black" stroke="black" points="651.38,-168.64 640.87,-169.98 649.92,-175.49 651.38,-168.64"/>
</g>
<!-- cluster -->
<g id="node9" class="node">
<title>cluster</title>
<ellipse fill="none" stroke="black" cx="845.95" cy="-306" rx="34.39" ry="18"/>
<text text-anchor="middle" x="845.95" y="-302.3" font-family="Times,serif" font-size="14.00">cluster</text>
</g>
<!-- cluster&#45;&gt;analytic_engine -->
<g id="edge9" class="edge">
<title>cluster&#45;&gt;analytic_engine</title>
<path fill="none" stroke="black" d="M876.79,-297.97C927.45,-286.42 1029.12,-263.23 1093.96,-248.45"/>
<polygon fill="black" stroke="black" points="1095.06,-251.79 1104.03,-246.15 1093.51,-244.96 1095.06,-251.79"/>
</g>
<!-- cluster&#45;&gt;catalog -->
<g id="edge10" class="edge">
<title>cluster&#45;&gt;catalog</title>
<path fill="none" stroke="black" d="M819.16,-294.26C813.8,-292.16 808.21,-289.98 802.95,-288 758.76,-271.31 742.27,-278.17 702.95,-252 684.88,-239.97 685.56,-231.08 669.95,-216 658.64,-205.08 645.47,-193.66 634.19,-184.23"/>
<polygon fill="black" stroke="black" points="636.3,-181.43 626.36,-177.75 631.84,-186.82 636.3,-181.43"/>
</g>
<!-- meta_client_v2 -->
<g id="node10" class="node">
<title>meta_client_v2</title>
<ellipse fill="none" stroke="black" cx="777.95" cy="-234" rx="65.79" ry="18"/>
<text text-anchor="middle" x="777.95" y="-230.3" font-family="Times,serif" font-size="14.00">meta_client_v2</text>
</g>
<!-- cluster&#45;&gt;meta_client_v2 -->
<g id="edge11" class="edge">
<title>cluster&#45;&gt;meta_client_v2</title>
<path fill="none" stroke="black" d="M830.86,-289.46C822.13,-280.48 810.96,-268.98 801.13,-258.87"/>
<polygon fill="black" stroke="black" points="803.42,-256.2 793.95,-251.47 798.4,-261.08 803.42,-256.2"/>
</g>
<!-- meta_client_v2&#45;&gt;table_engine -->
<g id="edge21" class="edge">
<title>meta_client_v2&#45;&gt;table_engine</title>
<path fill="none" stroke="black" d="M758.45,-216.71C728.09,-191.35 669.45,-142.37 635.01,-113.6"/>
<polygon fill="black" stroke="black" points="637.14,-110.82 627.22,-107.1 632.65,-116.2 637.14,-110.82"/>
</g>
<!-- meta_client_v2&#45;&gt;catalog -->
<g id="edge20" class="edge">
<title>meta_client_v2&#45;&gt;catalog</title>
<path fill="none" stroke="black" d="M743.14,-218.67C714.42,-206.84 673.81,-190.12 644.6,-178.09"/>
<polygon fill="black" stroke="black" points="645.75,-174.78 635.17,-174.21 643.08,-181.25 645.75,-174.78"/>
</g>
<!-- interpreters -->
<g id="node11" class="node">
<title>interpreters</title>
<ellipse fill="none" stroke="black" cx="258.95" cy="-378" rx="51.19" ry="18"/>
<text text-anchor="middle" x="258.95" y="-374.3" font-family="Times,serif" font-size="14.00">interpreters</text>
</g>
<!-- interpreters&#45;&gt;arrow_deps -->
<g id="edge17" class="edge">
<title>interpreters&#45;&gt;arrow_deps</title>
<path fill="none" stroke="black" d="M251.87,-359.85C241.64,-333.49 223.95,-281.21 223.95,-235 223.95,-235 223.95,-235 223.95,-161 223.95,-120.86 231.5,-74.9 237.08,-46.4"/>
<polygon fill="black" stroke="black" points="240.56,-46.88 239.1,-36.39 233.69,-45.5 240.56,-46.88"/>
</g>
<!-- interpreters&#45;&gt;table_engine -->
<g id="edge14" class="edge">
<title>interpreters&#45;&gt;table_engine</title>
<path fill="none" stroke="black" d="M266.81,-359.99C289.58,-311.39 356.49,-173.51 395.95,-144 438.46,-112.21 497.83,-99.34 542.93,-94.2"/>
<polygon fill="black" stroke="black" points="543.32,-97.68 552.91,-93.16 542.6,-90.72 543.32,-97.68"/>
</g>
<!-- interpreters&#45;&gt;catalog -->
<g id="edge12" class="edge">
<title>interpreters&#45;&gt;catalog</title>
<path fill="none" stroke="black" d="M275.96,-360.69C318.14,-320.28 424.44,-218.6 428.95,-216 471.29,-191.58 525.87,-177.54 563.57,-170.12"/>
<polygon fill="black" stroke="black" points="564.56,-173.5 573.74,-168.2 563.26,-166.62 564.56,-173.5"/>
</g>
<!-- sql -->
<g id="node12" class="node">
<title>sql</title>
<ellipse fill="none" stroke="black" cx="278.95" cy="-234" rx="27" ry="18"/>
<text text-anchor="middle" x="278.95" y="-230.3" font-family="Times,serif" font-size="14.00">sql</text>
</g>
<!-- interpreters&#45;&gt;sql -->
<g id="edge13" class="edge">
<title>interpreters&#45;&gt;sql</title>
<path fill="none" stroke="black" d="M261.36,-359.87C264.77,-335.67 271.03,-291.21 275.09,-262.39"/>
<polygon fill="black" stroke="black" points="278.6,-262.58 276.53,-252.19 271.67,-261.6 278.6,-262.58"/>
</g>
<!-- df_operator -->
<g id="node13" class="node">
<title>df_operator</title>
<ellipse fill="none" stroke="black" cx="105.95" cy="-162" rx="51.99" ry="18"/>
<text text-anchor="middle" x="105.95" y="-158.3" font-family="Times,serif" font-size="14.00">df_operator</text>
</g>
<!-- interpreters&#45;&gt;df_operator -->
<g id="edge15" class="edge">
<title>interpreters&#45;&gt;df_operator</title>
<path fill="none" stroke="black" d="M242.28,-360.47C232.42,-350.34 219.94,-336.87 209.95,-324 174.86,-278.78 139.97,-221.63 120.85,-189.01"/>
<polygon fill="black" stroke="black" points="123.72,-186.98 115.67,-180.1 117.67,-190.5 123.72,-186.98"/>
</g>
<!-- query_engine -->
<g id="node14" class="node">
<title>query_engine</title>
<ellipse fill="none" stroke="black" cx="98.95" cy="-306" rx="59.29" ry="18"/>
<text text-anchor="middle" x="98.95" y="-302.3" font-family="Times,serif" font-size="14.00">query_engine</text>
</g>
<!-- interpreters&#45;&gt;query_engine -->
<g id="edge16" class="edge">
<title>interpreters&#45;&gt;query_engine</title>
<path fill="none" stroke="black" d="M228.1,-363.5C203.24,-352.63 168.05,-337.23 140.68,-325.26"/>
<polygon fill="black" stroke="black" points="141.92,-321.98 131.35,-321.18 139.11,-328.39 141.92,-321.98"/>
</g>
<!-- sql&#45;&gt;arrow_deps -->
<g id="edge36" class="edge">
<title>sql&#45;&gt;arrow_deps</title>
<path fill="none" stroke="black" d="M276.06,-215.85C269.82,-178.75 255.03,-90.81 247.51,-46.1"/>
<polygon fill="black" stroke="black" points="250.96,-45.51 245.85,-36.23 244.06,-46.67 250.96,-45.51"/>
</g>
<!-- sql&#45;&gt;table_engine -->
<g id="edge38" class="edge">
<title>sql&#45;&gt;table_engine</title>
<path fill="none" stroke="black" d="M282.7,-215.96C288.14,-195.51 300.26,-161.77 323.95,-144 357.96,-118.49 471.47,-103.52 544.27,-96.32"/>
<polygon fill="black" stroke="black" points="544.64,-99.8 554.26,-95.36 543.97,-92.84 544.64,-99.8"/>
</g>
<!-- sql&#45;&gt;catalog -->
<g id="edge37" class="edge">
<title>sql&#45;&gt;catalog</title>
<path fill="none" stroke="black" d="M304.21,-227.54C319.71,-224.2 339.98,-219.84 357.95,-216 430.66,-200.47 515.3,-182.56 565.1,-172.04"/>
<polygon fill="black" stroke="black" points="566.12,-175.4 575.18,-169.91 564.67,-168.56 566.12,-175.4"/>
</g>
<!-- sql&#45;&gt;df_operator -->
<g id="edge39" class="edge">
<title>sql&#45;&gt;df_operator</title>
<path fill="none" stroke="black" d="M256.33,-223.85C228.99,-212.79 182.41,-193.94 148.32,-180.14"/>
<polygon fill="black" stroke="black" points="149.2,-176.72 138.62,-176.22 146.57,-183.21 149.2,-176.72"/>
</g>
<!-- df_operator&#45;&gt;arrow_deps -->
<g id="edge46" class="edge">
<title>df_operator&#45;&gt;arrow_deps</title>
<path fill="none" stroke="black" d="M121.66,-144.71C145.79,-119.7 192.1,-71.71 219.99,-42.8"/>
<polygon fill="black" stroke="black" points="222.57,-45.16 226.99,-35.54 217.53,-40.3 222.57,-45.16"/>
</g>
<!-- query_engine&#45;&gt;arrow_deps -->
<g id="edge22" class="edge">
<title>query_engine&#45;&gt;arrow_deps</title>
<path fill="none" stroke="black" d="M84.72,-288.24C60.96,-258.09 18.31,-193.28 44.95,-144 76.24,-86.12 147.11,-51.46 195,-33.8"/>
<polygon fill="black" stroke="black" points="196.31,-37.05 204.55,-30.39 193.96,-30.46 196.31,-37.05"/>
</g>
<!-- query_engine&#45;&gt;table_engine -->
<g id="edge24" class="edge">
<title>query_engine&#45;&gt;table_engine</title>
<path fill="none" stroke="black" d="M113.07,-288.5C142.67,-255.13 214.96,-179.74 292.95,-144 373.46,-107.1 476.12,-95.62 541.95,-92.19"/>
<polygon fill="black" stroke="black" points="542.36,-95.68 552.19,-91.71 542.03,-88.69 542.36,-95.68"/>
</g>
<!-- query_engine&#45;&gt;sql -->
<g id="edge23" class="edge">
<title>query_engine&#45;&gt;sql</title>
<path fill="none" stroke="black" d="M134.08,-291.34C166.67,-278.66 214.78,-259.95 246.49,-247.62"/>
<polygon fill="black" stroke="black" points="248.11,-250.75 256.16,-243.86 245.57,-244.22 248.11,-250.75"/>
</g>
<!-- query_engine&#45;&gt;df_operator -->
<g id="edge25" class="edge">
<title>query_engine&#45;&gt;df_operator</title>
<path fill="none" stroke="black" d="M99.79,-287.87C100.99,-263.67 103.18,-219.21 104.6,-190.39"/>
<polygon fill="black" stroke="black" points="108.11,-190.35 105.1,-180.19 101.11,-190 108.11,-190.35"/>
</g>
<!-- meta_client -->
<g id="node15" class="node">
<title>meta_client</title>
<ellipse fill="none" stroke="black" cx="489.95" cy="-234" rx="51.99" ry="18"/>
<text text-anchor="middle" x="489.95" y="-230.3" font-family="Times,serif" font-size="14.00">meta_client</text>
</g>
<!-- meta_client&#45;&gt;table_engine -->
<g id="edge19" class="edge">
<title>meta_client&#45;&gt;table_engine</title>
<path fill="none" stroke="black" d="M503.32,-216.53C517.9,-198.61 541.95,-169.16 562.95,-144 570.77,-134.63 579.42,-124.4 587.04,-115.45"/>
<polygon fill="black" stroke="black" points="589.87,-117.53 593.69,-107.65 584.54,-112.99 589.87,-117.53"/>
</g>
<!-- meta_client&#45;&gt;catalog -->
<g id="edge18" class="edge">
<title>meta_client&#45;&gt;catalog</title>
<path fill="none" stroke="black" d="M514.97,-218.15C532.96,-207.48 557.34,-193.02 576.62,-181.58"/>
<polygon fill="black" stroke="black" points="578.54,-184.52 585.35,-176.4 574.97,-178.5 578.54,-184.52"/>
</g>
<!-- server -->
<g id="node16" class="node">
<title>server</title>
<ellipse fill="none" stroke="black" cx="413.95" cy="-450" rx="32.49" ry="18"/>
<text text-anchor="middle" x="413.95" y="-446.3" font-family="Times,serif" font-size="14.00">server</text>
</g>
<!-- server&#45;&gt;arrow_deps -->
<g id="edge27" class="edge">
<title>server&#45;&gt;arrow_deps</title>
<path fill="none" stroke="black" d="M381.6,-447.91C303.79,-444.72 108.77,-433.13 56.95,-396 27.7,-375.04 28.41,-358.97 19.95,-324 -6.86,-213.18 -18.8,-145.99 67.95,-72 100.07,-44.6 146.05,-31.37 182.82,-24.97"/>
<polygon fill="black" stroke="black" points="183.61,-28.39 192.92,-23.35 182.49,-21.48 183.61,-28.39"/>
</g>
<!-- server&#45;&gt;analytic_engine -->
<g id="edge26" class="edge">
<title>server&#45;&gt;analytic_engine</title>
<path fill="none" stroke="black" d="M443.33,-442C518.13,-424.03 721.71,-374.13 888.95,-324 965.12,-301.17 1052.34,-270.95 1105,-252.26"/>
<polygon fill="black" stroke="black" points="1106.49,-255.44 1114.74,-248.79 1104.14,-248.85 1106.49,-255.44"/>
</g>
<!-- server&#45;&gt;table_engine -->
<g id="edge34" class="edge">
<title>server&#45;&gt;table_engine</title>
<path fill="none" stroke="black" d="M410.33,-431.81C402.74,-391.21 388.96,-287.45 428.95,-216 458.55,-163.11 521.01,-127.52 563.73,-108.26"/>
<polygon fill="black" stroke="black" points="565.31,-111.39 573.06,-104.17 562.5,-104.98 565.31,-111.39"/>
</g>
<!-- server&#45;&gt;catalog -->
<g id="edge28" class="edge">
<title>server&#45;&gt;catalog</title>
<path fill="none" stroke="black" d="M426.43,-432.93C434.44,-422.51 444.98,-408.58 453.95,-396 506.81,-321.9 564.96,-231.18 592.21,-188.07"/>
<polygon fill="black" stroke="black" points="595.32,-189.69 597.7,-179.37 589.4,-185.96 595.32,-189.69"/>
</g>
<!-- server&#45;&gt;system_catalog -->
<g id="edge33" class="edge">
<title>server&#45;&gt;system_catalog</title>
<path fill="none" stroke="black" d="M445.36,-445.14C481.57,-439.42 541.52,-425.96 583.95,-396 632.96,-361.39 614.06,-319.78 664.95,-288 737.11,-242.94 769.7,-269.53 852.95,-252 858.19,-250.9 863.63,-249.72 869.08,-248.51"/>
<polygon fill="black" stroke="black" points="869.85,-251.92 878.84,-246.32 868.32,-245.09 869.85,-251.92"/>
</g>
<!-- server&#45;&gt;interpreters -->
<g id="edge29" class="edge">
<title>server&#45;&gt;interpreters</title>
<path fill="none" stroke="black" d="M389.39,-437.91C365,-426.89 327.21,-409.83 298.58,-396.9"/>
<polygon fill="black" stroke="black" points="299.8,-393.61 289.25,-392.68 296.92,-399.99 299.8,-393.61"/>
</g>
<!-- server&#45;&gt;sql -->
<g id="edge32" class="edge">
<title>server&#45;&gt;sql</title>
<path fill="none" stroke="black" d="M403.58,-432.56C380,-395.19 322.27,-303.68 294.45,-259.57"/>
<polygon fill="black" stroke="black" points="297.28,-257.5 288.99,-250.91 291.36,-261.23 297.28,-257.5"/>
</g>
<!-- server&#45;&gt;df_operator -->
<g id="edge35" class="edge">
<title>server&#45;&gt;df_operator</title>
<path fill="none" stroke="black" d="M381.8,-446.3C330.73,-441.19 228.6,-427.67 147.95,-396 91.12,-373.68 60.73,-377.3 30.95,-324 4.49,-276.65 49.8,-218.36 80.74,-186.52"/>
<polygon fill="black" stroke="black" points="83.28,-188.94 87.87,-179.39 78.32,-183.99 83.28,-188.94"/>
</g>
<!-- server&#45;&gt;query_engine -->
<g id="edge31" class="edge">
<title>server&#45;&gt;query_engine</title>
<path fill="none" stroke="black" d="M382,-445.98C338.44,-440.82 258.99,-427.6 198.95,-396 167.9,-379.66 138.7,-351.64 119.96,-331.4"/>
<polygon fill="black" stroke="black" points="122.38,-328.86 113.07,-323.8 117.19,-333.56 122.38,-328.86"/>
</g>
<!-- server&#45;&gt;meta_client -->
<g id="edge30" class="edge">
<title>server&#45;&gt;meta_client</title>
<path fill="none" stroke="black" d="M419.91,-432.21C433.06,-395.19 464.63,-306.3 480.5,-261.6"/>
<polygon fill="black" stroke="black" points="483.86,-262.61 483.91,-252.01 477.26,-260.26 483.86,-262.61"/>
</g>
<!-- ceresdb -->
<g id="node17" class="node">
<title>ceresdb</title>
<ellipse fill="none" stroke="black" cx="607.95" cy="-522" rx="37.89" ry="18"/>
<text text-anchor="middle" x="607.95" y="-518.3" font-family="Times,serif" font-size="14.00">ceresdb</text>
</g>
<!-- ceresdb&#45;&gt;analytic_engine -->
<g id="edge47" class="edge">
<title>ceresdb&#45;&gt;analytic_engine</title>
<path fill="none" stroke="black" d="M645.69,-521.71C744.46,-522.81 1007.47,-520.6 1072.95,-468 1136.65,-416.83 1149.83,-312.26 1152.41,-262.5"/>
<polygon fill="black" stroke="black" points="1155.92,-262.33 1152.84,-252.2 1148.93,-262.05 1155.92,-262.33"/>
</g>
<!-- ceresdb&#45;&gt;table_engine -->
<g id="edge52" class="edge">
<title>ceresdb&#45;&gt;table_engine</title>
<path fill="none" stroke="black" d="M644.47,-517.45C751.84,-506.01 1058.95,-465.71 1058.95,-379 1058.95,-379 1058.95,-379 1058.95,-233 1058.95,-152.56 794.61,-112.06 670.68,-97.49"/>
<polygon fill="black" stroke="black" points="670.9,-93.99 660.57,-96.32 670.1,-100.95 670.9,-93.99"/>
</g>
<!-- ceresdb&#45;&gt;catalog -->
<g id="edge48" class="edge">
<title>ceresdb&#45;&gt;catalog</title>
<path fill="none" stroke="black" d="M607.95,-503.95C607.95,-477.29 607.95,-424.11 607.95,-379 607.95,-379 607.95,-379 607.95,-305 607.95,-265 607.95,-218.65 607.95,-190.08"/>
<polygon fill="black" stroke="black" points="611.45,-190.05 607.95,-180.05 604.45,-190.05 611.45,-190.05"/>
</g>
<!-- ceresdb&#45;&gt;catalog_impls -->
<g id="edge49" class="edge">
<title>ceresdb&#45;&gt;catalog_impls</title>
<path fill="none" stroke="black" d="M617.63,-504.56C639.47,-467.47 692.72,-377.02 718.91,-332.54"/>
<polygon fill="black" stroke="black" points="722.01,-334.18 724.06,-323.79 715.97,-330.63 722.01,-334.18"/>
</g>
<!-- ceresdb&#45;&gt;df_operator -->
<g id="edge53" class="edge">
<title>ceresdb&#45;&gt;df_operator</title>
<path fill="none" stroke="black" d="M570.19,-520.46C496.67,-518.47 329.88,-509.36 196.95,-468 130.14,-447.21 106.42,-445.48 56.95,-396 -0.24,-338.79 -12.33,-284.97 29.95,-216 38.64,-201.82 52.7,-190.46 66.38,-181.94"/>
<polygon fill="black" stroke="black" points="68.39,-184.82 75.25,-176.75 64.85,-178.78 68.39,-184.82"/>
</g>
<!-- ceresdb&#45;&gt;query_engine -->
<g id="edge50" class="edge">
<title>ceresdb&#45;&gt;query_engine</title>
<path fill="none" stroke="black" d="M570.21,-520.78C485.14,-518.35 275.91,-501.31 147.95,-396 128.26,-379.8 115.18,-353.51 107.53,-333.7"/>
<polygon fill="black" stroke="black" points="110.81,-332.49 104.11,-324.29 104.23,-334.88 110.81,-332.49"/>
</g>
<!-- ceresdb&#45;&gt;server -->
<g id="edge51" class="edge">
<title>ceresdb&#45;&gt;server</title>
<path fill="none" stroke="black" d="M578.91,-510.52C544.46,-498.09 487.04,-477.37 449.84,-463.95"/>
<polygon fill="black" stroke="black" points="450.98,-460.64 440.38,-460.54 448.6,-467.22 450.98,-460.64"/>
</g>
</g>
</svg>
