<?xml version="1.0" encoding="UTF-8" standalone="no"?>
<!DOCTYPE svg PUBLIC "-//W3C//DTD SVG 1.1//EN"
 "http://www.w3.org/Graphics/SVG/1.1/DTD/svg11.dtd">
<!-- Generated by graphviz version 3.0.0 (0)
 -->
<!-- Title: G Pages: 1 -->
<svg width="1235pt" height="548pt"
 viewBox="0.00 0.00 1234.60 548.00" xmlns="http://www.w3.org/2000/svg" xmlns:xlink="http://www.w3.org/1999/xlink">
<g id="graph0" class="graph" transform="scale(1 1) rotate(0) translate(4 544)">
<title>G</title>
<polygon fill="white" stroke="transparent" points="-4,4 -4,-544 1230.6,-544 1230.6,4 -4,4"/>
<!-- arrow_deps -->
<g id="node1" class="node">
<title>arrow_deps</title>
<ellipse fill="none" stroke="black" cx="238.37" cy="-18" rx="51.99" ry="18"/>
<text text-anchor="middle" x="238.37" y="-14.3" font-family="Times,serif" font-size="14.00">arrow_deps</text>
</g>
<!-- analytic_engine -->
<g id="node2" class="node">
<title>analytic_engine</title>
<ellipse fill="none" stroke="black" cx="1148.37" cy="-234" rx="66.09" ry="18"/>
<text text-anchor="middle" x="1148.37" y="-230.3" font-family="Times,serif" font-size="14.00">analytic_engine</text>
</g>
<!-- analytic_engine&#45;&gt;arrow_deps -->
<g id="edge1" class="edge">
<title>analytic_engine&#45;&gt;arrow_deps</title>
<path fill="none" stroke="black" d="M1144.62,-215.96C1139.17,-195.52 1127.05,-161.78 1103.37,-144 976.1,-48.4 476.38,-25.54 300.24,-20.4"/>
<polygon fill="black" stroke="black" points="300.2,-16.9 290.1,-20.12 300,-23.9 300.2,-16.9"/>
</g>
<!-- proto -->
<g id="node3" class="node">
<title>proto</title>
<ellipse fill="none" stroke="black" cx="922.37" cy="-18" rx="29.5" ry="18"/>
<text text-anchor="middle" x="922.37" y="-14.3" font-family="Times,serif" font-size="14.00">proto</text>
</g>
<!-- analytic_engine&#45;&gt;proto -->
<g id="edge2" class="edge">
<title>analytic_engine&#45;&gt;proto</title>
<path fill="none" stroke="black" d="M1181.07,-218.2C1196.27,-209.44 1212.84,-196.74 1221.37,-180 1228.64,-165.75 1227.74,-158.68 1221.37,-144 1178.55,-45.32 1032.93,-24.32 961.93,-20.01"/>
<polygon fill="black" stroke="black" points="961.78,-16.49 951.61,-19.46 961.42,-23.48 961.78,-16.49"/>
</g>
<!-- table_engine -->
<g id="node4" class="node">
<title>table_engine</title>
<ellipse fill="none" stroke="black" cx="603.37" cy="-90" rx="55.79" ry="18"/>
<text text-anchor="middle" x="603.37" y="-86.3" font-family="Times,serif" font-size="14.00">table_engine</text>
</g>
<!-- analytic_engine&#45;&gt;table_engine -->
<g id="edge3" class="edge">
<title>analytic_engine&#45;&gt;table_engine</title>
<path fill="none" stroke="black" d="M1138.45,-215.83C1125.33,-194.92 1100.14,-160.38 1068.37,-144 1000.27,-108.89 780.11,-96.74 668.92,-92.78"/>
<polygon fill="black" stroke="black" points="668.94,-89.28 658.83,-92.44 668.7,-96.28 668.94,-89.28"/>
</g>
<!-- wal -->
<g id="node5" class="node">
<title>wal</title>
<ellipse fill="none" stroke="black" cx="1185.37" cy="-162" rx="27" ry="18"/>
<text text-anchor="middle" x="1185.37" y="-158.3" font-family="Times,serif" font-size="14.00">wal</text>
</g>
<!-- analytic_engine&#45;&gt;wal -->
<g id="edge4" class="edge">
<title>analytic_engine&#45;&gt;wal</title>
<path fill="none" stroke="black" d="M1157.33,-216.05C1161.71,-207.77 1167.08,-197.62 1171.94,-188.42"/>
<polygon fill="black" stroke="black" points="1175.18,-189.78 1176.76,-179.31 1168.99,-186.51 1175.18,-189.78"/>
</g>
<!-- table_engine&#45;&gt;arrow_deps -->
<g id="edge44" class="edge">
<title>table_engine&#45;&gt;arrow_deps</title>
<path fill="none" stroke="black" d="M556.4,-79.99C488.78,-67.02 364.28,-43.15 292.75,-29.43"/>
<polygon fill="black" stroke="black" points="293.08,-25.93 282.6,-27.48 291.76,-32.8 293.08,-25.93"/>
</g>
<!-- table_engine&#45;&gt;proto -->
<g id="edge45" class="edge">
<title>table_engine&#45;&gt;proto</title>
<path fill="none" stroke="black" d="M648.4,-79.12C711.91,-65.18 826.6,-40.02 885.41,-27.11"/>
<polygon fill="black" stroke="black" points="886.36,-30.49 895.37,-24.92 884.86,-23.65 886.36,-30.49"/>
</g>
<!-- catalog -->
<g id="node6" class="node">
<title>catalog</title>
<ellipse fill="none" stroke="black" cx="603.37" cy="-162" rx="36.29" ry="18"/>
<text text-anchor="middle" x="603.37" y="-158.3" font-family="Times,serif" font-size="14.00">catalog</text>
</g>
<!-- catalog&#45;&gt;table_engine -->
<g id="edge5" class="edge">
<title>catalog&#45;&gt;table_engine</title>
<path fill="none" stroke="black" d="M603.37,-143.7C603.37,-135.98 603.37,-126.71 603.37,-118.11"/>
<polygon fill="black" stroke="black" points="606.87,-118.1 603.37,-108.1 599.87,-118.1 606.87,-118.1"/>
</g>
<!-- catalog_impls -->
<g id="node7" class="node">
<title>catalog_impls</title>
<ellipse fill="none" stroke="black" cx="729.37" cy="-306" rx="59.59" ry="18"/>
<text text-anchor="middle" x="729.37" y="-302.3" font-family="Times,serif" font-size="14.00">catalog_impls</text>
</g>
<!-- catalog_impls&#45;&gt;table_engine -->
<g id="edge8" class="edge">
<title>catalog_impls&#45;&gt;table_engine</title>
<path fill="none" stroke="black" d="M773.45,-293.7C781.71,-291.71 790.29,-289.73 798.37,-288 890.36,-268.37 1052.58,-292.15 997.37,-216 957.52,-161.02 761.27,-119.02 661.64,-100.85"/>
<polygon fill="black" stroke="black" points="662.19,-97.39 651.72,-99.06 660.94,-104.28 662.19,-97.39"/>
</g>
<!-- catalog_impls&#45;&gt;catalog -->
<g id="edge6" class="edge">
<title>catalog_impls&#45;&gt;catalog</title>
<path fill="none" stroke="black" d="M707.35,-289.15C694.38,-279.25 678.07,-265.8 665.37,-252 647.08,-232.11 629.81,-206.55 618.17,-187.93"/>
<polygon fill="black" stroke="black" points="621.14,-186.09 612.92,-179.4 615.18,-189.75 621.14,-186.09"/>
</g>
<!-- system_catalog -->
<g id="node8" class="node">
<title>system_catalog</title>
<ellipse fill="none" stroke="black" cx="922.37" cy="-234" rx="65.79" ry="18"/>
<text text-anchor="middle" x="922.37" y="-230.3" font-family="Times,serif" font-size="14.00">system_catalog</text>
</g>
<!-- catalog_impls&#45;&gt;system_catalog -->
<g id="edge7" class="edge">
<title>catalog_impls&#45;&gt;system_catalog</title>
<path fill="none" stroke="black" d="M766.13,-291.67C796.99,-280.48 841.29,-264.41 874.84,-252.24"/>
<polygon fill="black" stroke="black" points="876.23,-255.46 884.44,-248.76 873.84,-248.88 876.23,-255.46"/>
</g>
<!-- system_catalog&#45;&gt;arrow_deps -->
<g id="edge40" class="edge">
<title>system_catalog&#45;&gt;arrow_deps</title>
<path fill="none" stroke="black" d="M903.24,-216.56C862.92,-182.93 764.96,-106.58 668.37,-72 543.33,-27.23 386.22,-19.01 300.76,-18.21"/>
<polygon fill="black" stroke="black" points="300.72,-14.71 290.7,-18.15 300.68,-21.71 300.72,-14.71"/>
</g>
<!-- system_catalog&#45;&gt;proto -->
<g id="edge42" class="edge">
<title>system_catalog&#45;&gt;proto</title>
<path fill="none" stroke="black" d="M922.37,-215.85C922.37,-178.83 922.37,-91.18 922.37,-46.39"/>
<polygon fill="black" stroke="black" points="925.87,-46.23 922.37,-36.23 918.87,-46.23 925.87,-46.23"/>
</g>
<!-- system_catalog&#45;&gt;table_engine -->
<g id="edge43" class="edge">
<title>system_catalog&#45;&gt;table_engine</title>
<path fill="none" stroke="black" d="M889.44,-218.34C830.69,-192.19 708,-137.58 644.08,-109.12"/>
<polygon fill="black" stroke="black" points="645.27,-105.82 634.72,-104.95 642.43,-112.22 645.27,-105.82"/>
</g>
<!-- system_catalog&#45;&gt;catalog -->
<g id="edge41" class="edge">
<title>system_catalog&#45;&gt;catalog</title>
<path fill="none" stroke="black" d="M873.83,-221.76C865.35,-219.82 856.61,-217.84 848.37,-216 777.59,-200.21 695.14,-182.52 646.21,-172.09"/>
<polygon fill="black" stroke="black" points="646.8,-168.64 636.3,-169.98 645.35,-175.49 646.8,-168.64"/>
</g>
<!-- cluster -->
<g id="node9" class="node">
<title>cluster</title>
<ellipse fill="none" stroke="black" cx="841.37" cy="-306" rx="34.39" ry="18"/>
<text text-anchor="middle" x="841.37" y="-302.3" font-family="Times,serif" font-size="14.00">cluster</text>
</g>
<!-- cluster&#45;&gt;analytic_engine -->
<g id="edge9" class="edge">
<title>cluster&#45;&gt;analytic_engine</title>
<path fill="none" stroke="black" d="M872.22,-297.97C922.88,-286.42 1024.54,-263.23 1089.38,-248.45"/>
<polygon fill="black" stroke="black" points="1090.49,-251.79 1099.46,-246.15 1088.93,-244.96 1090.49,-251.79"/>
</g>
<!-- cluster&#45;&gt;catalog -->
<g id="edge10" class="edge">
<title>cluster&#45;&gt;catalog</title>
<path fill="none" stroke="black" d="M814.59,-294.26C809.23,-292.16 803.63,-289.98 798.37,-288 754.18,-271.31 737.7,-278.17 698.37,-252 680.31,-239.97 680.99,-231.08 665.37,-216 654.06,-205.08 640.9,-193.66 629.62,-184.23"/>
<polygon fill="black" stroke="black" points="631.73,-181.43 621.79,-177.75 627.26,-186.82 631.73,-181.43"/>
</g>
<!-- meta_client_v2 -->
<g id="node10" class="node">
<title>meta_client_v2</title>
<ellipse fill="none" stroke="black" cx="773.37" cy="-234" rx="65.79" ry="18"/>
<text text-anchor="middle" x="773.37" y="-230.3" font-family="Times,serif" font-size="14.00">meta_client_v2</text>
</g>
<!-- cluster&#45;&gt;meta_client_v2 -->
<g id="edge11" class="edge">
<title>cluster&#45;&gt;meta_client_v2</title>
<path fill="none" stroke="black" d="M826.28,-289.46C817.55,-280.48 806.38,-268.98 796.56,-258.87"/>
<polygon fill="black" stroke="black" points="798.85,-256.2 789.37,-251.47 793.83,-261.08 798.85,-256.2"/>
</g>
<!-- meta_client_v2&#45;&gt;table_engine -->
<g id="edge21" class="edge">
<title>meta_client_v2&#45;&gt;table_engine</title>
<path fill="none" stroke="black" d="M753.87,-216.71C723.51,-191.35 664.87,-142.37 630.44,-113.6"/>
<polygon fill="black" stroke="black" points="632.57,-110.82 622.65,-107.1 628.08,-116.2 632.57,-110.82"/>
</g>
<!-- meta_client_v2&#45;&gt;catalog -->
<g id="edge20" class="edge">
<title>meta_client_v2&#45;&gt;catalog</title>
<path fill="none" stroke="black" d="M738.56,-218.67C709.85,-206.84 669.23,-190.12 640.03,-178.09"/>
<polygon fill="black" stroke="black" points="641.17,-174.78 630.59,-174.21 638.51,-181.25 641.17,-174.78"/>
</g>
<!-- interpreters -->
<g id="node11" class="node">
<title>interpreters</title>
<ellipse fill="none" stroke="black" cx="254.37" cy="-378" rx="51.19" ry="18"/>
<text text-anchor="middle" x="254.37" y="-374.3" font-family="Times,serif" font-size="14.00">interpreters</text>
</g>
<!-- interpreters&#45;&gt;arrow_deps -->
<g id="edge17" class="edge">
<title>interpreters&#45;&gt;arrow_deps</title>
<path fill="none" stroke="black" d="M247.29,-359.85C237.06,-333.49 219.37,-281.21 219.37,-235 219.37,-235 219.37,-235 219.37,-161 219.37,-120.86 226.93,-74.9 232.51,-46.4"/>
<polygon fill="black" stroke="black" points="235.98,-46.88 234.53,-36.39 229.12,-45.5 235.98,-46.88"/>
</g>
<!-- interpreters&#45;&gt;table_engine -->
<g id="edge14" class="edge">
<title>interpreters&#45;&gt;table_engine</title>
<path fill="none" stroke="black" d="M262.23,-359.99C285.01,-311.39 351.92,-173.51 391.37,-144 433.88,-112.21 493.26,-99.34 538.36,-94.2"/>
<polygon fill="black" stroke="black" points="538.75,-97.68 548.33,-93.16 538.02,-90.72 538.75,-97.68"/>
</g>
<!-- interpreters&#45;&gt;catalog -->
<g id="edge12" class="edge">
<title>interpreters&#45;&gt;catalog</title>
<path fill="none" stroke="black" d="M271.39,-360.69C313.56,-320.28 419.86,-218.6 424.37,-216 466.72,-191.58 521.3,-177.54 559,-170.12"/>
<polygon fill="black" stroke="black" points="559.99,-173.5 569.16,-168.2 558.69,-166.62 559.99,-173.5"/>
</g>
<!-- sql -->
<g id="node12" class="node">
<title>sql</title>
<ellipse fill="none" stroke="black" cx="274.37" cy="-234" rx="27" ry="18"/>
<text text-anchor="middle" x="274.37" y="-230.3" font-family="Times,serif" font-size="14.00">sql</text>
</g>
<!-- interpreters&#45;&gt;sql -->
<g id="edge13" class="edge">
<title>interpreters&#45;&gt;sql</title>
<path fill="none" stroke="black" d="M256.79,-359.87C260.2,-335.67 266.46,-291.21 270.52,-262.39"/>
<polygon fill="black" stroke="black" points="274.02,-262.58 271.95,-252.19 267.09,-261.6 274.02,-262.58"/>
</g>
<!-- udf -->
<g id="node13" class="node">
<title>udf</title>
<ellipse fill="none" stroke="black" cx="100.37" cy="-162" rx="27" ry="18"/>
<text text-anchor="middle" x="100.37" y="-158.3" font-family="Times,serif" font-size="14.00">udf</text>
</g>
<!-- interpreters&#45;&gt;udf -->
<g id="edge15" class="edge">
<title>interpreters&#45;&gt;udf</title>
<path fill="none" stroke="black" d="M237.73,-360.46C227.87,-350.32 215.39,-336.85 205.37,-324 169.71,-278.24 134.07,-220.39 114.86,-187.97"/>
<polygon fill="black" stroke="black" points="117.75,-185.99 109.67,-179.14 111.72,-189.54 117.75,-185.99"/>
</g>
<!-- query_engine -->
<g id="node14" class="node">
<title>query_engine</title>
<ellipse fill="none" stroke="black" cx="94.37" cy="-306" rx="59.29" ry="18"/>
<text text-anchor="middle" x="94.37" y="-302.3" font-family="Times,serif" font-size="14.00">query_engine</text>
</g>
<!-- interpreters&#45;&gt;query_engine -->
<g id="edge16" class="edge">
<title>interpreters&#45;&gt;query_engine</title>
<path fill="none" stroke="black" d="M223.52,-363.5C198.67,-352.63 163.48,-337.23 136.1,-325.26"/>
<polygon fill="black" stroke="black" points="137.34,-321.98 126.78,-321.18 134.54,-328.39 137.34,-321.98"/>
</g>
<!-- sql&#45;&gt;arrow_deps -->
<g id="edge36" class="edge">
<title>sql&#45;&gt;arrow_deps</title>
<path fill="none" stroke="black" d="M271.49,-215.85C265.25,-178.75 250.45,-90.81 242.93,-46.1"/>
<polygon fill="black" stroke="black" points="246.38,-45.51 241.27,-36.23 239.48,-46.67 246.38,-45.51"/>
</g>
<!-- sql&#45;&gt;table_engine -->
<g id="edge38" class="edge">
<title>sql&#45;&gt;table_engine</title>
<path fill="none" stroke="black" d="M278.13,-215.96C283.57,-195.51 295.69,-161.77 319.37,-144 353.38,-118.49 466.89,-103.52 539.69,-96.32"/>
<polygon fill="black" stroke="black" points="540.07,-99.8 549.68,-95.36 539.39,-92.84 540.07,-99.8"/>
</g>
<!-- sql&#45;&gt;catalog -->
<g id="edge37" class="edge">
<title>sql&#45;&gt;catalog</title>
<path fill="none" stroke="black" d="M299.63,-227.54C315.14,-224.2 335.4,-219.84 353.37,-216 426.09,-200.47 510.73,-182.56 560.53,-172.04"/>
<polygon fill="black" stroke="black" points="561.55,-175.4 570.61,-169.91 560.1,-168.56 561.55,-175.4"/>
</g>
<!-- sql&#45;&gt;udf -->
<g id="edge39" class="edge">
<title>sql&#45;&gt;udf</title>
<path fill="none" stroke="black" d="M251.63,-223.85C221.19,-211.6 167.06,-189.83 132.48,-175.92"/>
<polygon fill="black" stroke="black" points="133.44,-172.53 122.85,-172.04 130.82,-179.02 133.44,-172.53"/>
</g>
<!-- udf&#45;&gt;arrow_deps -->
<g id="edge46" class="edge">
<title>udf&#45;&gt;arrow_deps</title>
<path fill="none" stroke="black" d="M114.37,-146.6C138.14,-122.14 186.65,-72.22 215.44,-42.59"/>
<polygon fill="black" stroke="black" points="218.2,-44.78 222.66,-35.17 213.18,-39.9 218.2,-44.78"/>
</g>
<!-- query_engine&#45;&gt;arrow_deps -->
<g id="edge22" class="edge">
<title>query_engine&#45;&gt;arrow_deps</title>
<path fill="none" stroke="black" d="M84.89,-288.19C69.19,-257.96 41.66,-193.01 64.37,-144 89.53,-89.72 151.76,-54.31 194.55,-35.48"/>
<polygon fill="black" stroke="black" points="196.07,-38.63 203.9,-31.49 193.32,-32.19 196.07,-38.63"/>
</g>
<!-- query_engine&#45;&gt;table_engine -->
<g id="edge24" class="edge">
<title>query_engine&#45;&gt;table_engine</title>
<path fill="none" stroke="black" d="M108.5,-288.5C138.1,-255.13 210.39,-179.74 288.37,-144 368.89,-107.1 471.54,-95.62 537.37,-92.19"/>
<polygon fill="black" stroke="black" points="537.79,-95.68 547.61,-91.71 537.46,-88.69 537.79,-95.68"/>
</g>
<!-- query_engine&#45;&gt;sql -->
<g id="edge23" class="edge">
<title>query_engine&#45;&gt;sql</title>
<path fill="none" stroke="black" d="M129.51,-291.34C162.1,-278.66 210.21,-259.95 241.91,-247.62"/>
<polygon fill="black" stroke="black" points="243.54,-250.75 251.59,-243.86 241,-244.22 243.54,-250.75"/>
</g>
<!-- query_engine&#45;&gt;udf -->
<g id="edge25" class="edge">
<title>query_engine&#45;&gt;udf</title>
<path fill="none" stroke="black" d="M95.1,-287.87C96.12,-263.67 98,-219.21 99.22,-190.39"/>
<polygon fill="black" stroke="black" points="102.72,-190.33 99.65,-180.19 95.73,-190.03 102.72,-190.33"/>
</g>
<!-- meta_client -->
<g id="node15" class="node">
<title>meta_client</title>
<ellipse fill="none" stroke="black" cx="485.37" cy="-234" rx="51.99" ry="18"/>
<text text-anchor="middle" x="485.37" y="-230.3" font-family="Times,serif" font-size="14.00">meta_client</text>
</g>
<!-- meta_client&#45;&gt;table_engine -->
<g id="edge19" class="edge">
<title>meta_client&#45;&gt;table_engine</title>
<path fill="none" stroke="black" d="M498.75,-216.53C513.32,-198.61 537.38,-169.16 558.37,-144 566.19,-134.63 574.85,-124.4 582.47,-115.45"/>
<polygon fill="black" stroke="black" points="585.29,-117.53 589.11,-107.65 579.96,-112.99 585.29,-117.53"/>
</g>
<!-- meta_client&#45;&gt;catalog -->
<g id="edge18" class="edge">
<title>meta_client&#45;&gt;catalog</title>
<path fill="none" stroke="black" d="M510.4,-218.15C528.39,-207.48 552.77,-193.02 572.05,-181.58"/>
<polygon fill="black" stroke="black" points="573.97,-184.52 580.78,-176.4 570.39,-178.5 573.97,-184.52"/>
</g>
<!-- server -->
<g id="node16" class="node">
<title>server</title>
<ellipse fill="none" stroke="black" cx="409.37" cy="-450" rx="32.49" ry="18"/>
<text text-anchor="middle" x="409.37" y="-446.3" font-family="Times,serif" font-size="14.00">server</text>
</g>
<!-- server&#45;&gt;arrow_deps -->
<g id="edge27" class="edge">
<title>server&#45;&gt;arrow_deps</title>
<path fill="none" stroke="black" d="M377.03,-447.91C299.22,-444.72 104.2,-433.13 52.37,-396 23.13,-375.04 23.83,-358.97 15.37,-324 -11.96,-211.02 -0.68,-150.14 85.37,-72 111.76,-48.04 149.53,-34.81 180.95,-27.57"/>
<polygon fill="black" stroke="black" points="181.86,-30.95 190.9,-25.42 180.39,-24.11 181.86,-30.95"/>
</g>
<!-- server&#45;&gt;analytic_engine -->
<g id="edge26" class="edge">
<title>server&#45;&gt;analytic_engine</title>
<path fill="none" stroke="black" d="M438.76,-442C513.56,-424.03 717.13,-374.13 884.37,-324 960.54,-301.17 1047.76,-270.95 1100.42,-252.26"/>
<polygon fill="black" stroke="black" points="1101.91,-255.44 1110.16,-248.79 1099.57,-248.85 1101.91,-255.44"/>
</g>
<!-- server&#45;&gt;table_engine -->
<g id="edge34" class="edge">
<title>server&#45;&gt;table_engine</title>
<path fill="none" stroke="black" d="M405.76,-431.81C398.17,-391.21 384.39,-287.45 424.37,-216 453.97,-163.11 516.44,-127.52 559.16,-108.26"/>
<polygon fill="black" stroke="black" points="560.74,-111.39 568.49,-104.17 557.93,-104.98 560.74,-111.39"/>
</g>
<!-- server&#45;&gt;catalog -->
<g id="edge28" class="edge">
<title>server&#45;&gt;catalog</title>
<path fill="none" stroke="black" d="M421.86,-432.93C429.86,-422.51 440.4,-408.58 449.37,-396 502.24,-321.9 560.38,-231.18 587.64,-188.07"/>
<polygon fill="black" stroke="black" points="590.75,-189.69 593.12,-179.37 584.83,-185.96 590.75,-189.69"/>
</g>
<!-- server&#45;&gt;system_catalog -->
<g id="edge33" class="edge">
<title>server&#45;&gt;system_catalog</title>
<path fill="none" stroke="black" d="M440.79,-445.14C476.99,-439.42 536.95,-425.96 579.37,-396 628.39,-361.39 609.48,-319.78 660.37,-288 732.53,-242.94 765.13,-269.53 848.37,-252 853.61,-250.9 859.06,-249.72 864.5,-248.51"/>
<polygon fill="black" stroke="black" points="865.27,-251.92 874.27,-246.32 863.74,-245.09 865.27,-251.92"/>
</g>
<!-- server&#45;&gt;interpreters -->
<g id="edge29" class="edge">
<title>server&#45;&gt;interpreters</title>
<path fill="none" stroke="black" d="M384.81,-437.91C360.43,-426.89 322.64,-409.83 294,-396.9"/>
<polygon fill="black" stroke="black" points="295.23,-393.61 284.67,-392.68 292.35,-399.99 295.23,-393.61"/>
</g>
<!-- server&#45;&gt;sql -->
<g id="edge32" class="edge">
<title>server&#45;&gt;sql</title>
<path fill="none" stroke="black" d="M399.01,-432.56C375.43,-395.19 317.7,-303.68 289.87,-259.57"/>
<polygon fill="black" stroke="black" points="292.71,-257.5 284.41,-250.91 286.79,-261.23 292.71,-257.5"/>
</g>
<!-- server&#45;&gt;udf -->
<g id="edge35" class="edge">
<title>server&#45;&gt;udf</title>
<path fill="none" stroke="black" d="M377.23,-446.3C326.16,-441.19 224.02,-427.67 143.37,-396 86.54,-373.68 56.16,-377.3 26.37,-324 -0.6,-275.73 46.8,-215.86 77.42,-184.49"/>
<polygon fill="black" stroke="black" points="80.17,-186.68 84.79,-177.15 75.23,-181.72 80.17,-186.68"/>
</g>
<!-- server&#45;&gt;query_engine -->
<g id="edge31" class="edge">
<title>server&#45;&gt;query_engine</title>
<path fill="none" stroke="black" d="M377.42,-445.98C333.87,-440.82 254.42,-427.6 194.37,-396 163.33,-379.66 134.12,-351.64 115.38,-331.4"/>
<polygon fill="black" stroke="black" points="117.8,-328.86 108.5,-323.8 112.62,-333.56 117.8,-328.86"/>
</g>
<!-- server&#45;&gt;meta_client -->
<g id="edge30" class="edge">
<title>server&#45;&gt;meta_client</title>
<path fill="none" stroke="black" d="M415.34,-432.21C428.49,-395.19 460.05,-306.3 475.93,-261.6"/>
<polygon fill="black" stroke="black" points="479.28,-262.61 479.33,-252.01 472.69,-260.26 479.28,-262.61"/>
</g>
<!-- ceresdb -->
<g id="node17" class="node">
<title>ceresdb</title>
<ellipse fill="none" stroke="black" cx="603.37" cy="-522" rx="37.89" ry="18"/>
<text text-anchor="middle" x="603.37" y="-518.3" font-family="Times,serif" font-size="14.00">ceresdb</text>
</g>
<!-- ceresdb&#45;&gt;analytic_engine -->
<g id="edge47" class="edge">
<title>ceresdb&#45;&gt;analytic_engine</title>
<path fill="none" stroke="black" d="M641.11,-521.71C739.89,-522.81 1002.89,-520.6 1068.37,-468 1132.08,-416.83 1145.25,-312.26 1147.84,-262.5"/>
<polygon fill="black" stroke="black" points="1151.35,-262.33 1148.26,-252.2 1144.36,-262.05 1151.35,-262.33"/>
</g>
<!-- ceresdb&#45;&gt;table_engine -->
<g id="edge52" class="edge">
<title>ceresdb&#45;&gt;table_engine</title>
<path fill="none" stroke="black" d="M639.9,-517.45C747.27,-506.01 1054.37,-465.71 1054.37,-379 1054.37,-379 1054.37,-379 1054.37,-233 1054.37,-152.56 790.03,-112.06 666.1,-97.49"/>
<polygon fill="black" stroke="black" points="666.33,-93.99 655.99,-96.32 665.53,-100.95 666.33,-93.99"/>
</g>
<!-- ceresdb&#45;&gt;catalog -->
<g id="edge48" class="edge">
<title>ceresdb&#45;&gt;catalog</title>
<path fill="none" stroke="black" d="M603.37,-503.95C603.37,-477.29 603.37,-424.11 603.37,-379 603.37,-379 603.37,-379 603.37,-305 603.37,-265 603.37,-218.65 603.37,-190.08"/>
<polygon fill="black" stroke="black" points="606.87,-190.05 603.37,-180.05 599.87,-190.05 606.87,-190.05"/>
</g>
<!-- ceresdb&#45;&gt;catalog_impls -->
<g id="edge49" class="edge">
<title>ceresdb&#45;&gt;catalog_impls</title>
<path fill="none" stroke="black" d="M613.05,-504.56C634.89,-467.47 688.15,-377.02 714.33,-332.54"/>
<polygon fill="black" stroke="black" points="717.43,-334.18 719.49,-323.79 711.4,-330.63 717.43,-334.18"/>
</g>
<!-- ceresdb&#45;&gt;udf -->
<g id="edge53" class="edge">
<title>ceresdb&#45;&gt;udf</title>
<path fill="none" stroke="black" d="M565.61,-520.46C492.09,-518.47 325.3,-509.36 192.37,-468 125.56,-447.21 101.84,-445.48 52.37,-396 -4.82,-338.79 -16.69,-285.1 25.37,-216 35.63,-199.15 53.49,-186.21 69.21,-177.33"/>
<polygon fill="black" stroke="black" points="70.96,-180.37 78.14,-172.58 67.67,-174.19 70.96,-180.37"/>
</g>
<!-- ceresdb&#45;&gt;query_engine -->
<g id="edge50" class="edge">
<title>ceresdb&#45;&gt;query_engine</title>
<path fill="none" stroke="black" d="M565.63,-520.78C480.57,-518.35 271.33,-501.31 143.37,-396 123.68,-379.8 110.61,-353.51 102.95,-333.7"/>
<polygon fill="black" stroke="black" points="106.24,-332.49 99.53,-324.29 99.66,-334.88 106.24,-332.49"/>
</g>
<!-- ceresdb&#45;&gt;server -->
<g id="edge51" class="edge">
<title>ceresdb&#45;&gt;server</title>
<path fill="none" stroke="black" d="M574.33,-510.52C539.88,-498.09 482.46,-477.37 445.27,-463.95"/>
<polygon fill="black" stroke="black" points="446.4,-460.64 435.81,-460.54 444.03,-467.22 446.4,-460.64"/>
</g>
</g>
</svg>
